<svg xmlns="http://www.w3.org/2000/svg" class="SiteNavItem__externalIcon" fill="currentColor" viewBox="0 0 10 10"><path fill="currentColor" fill-rule="evenodd" d="M1.25 2.5v6.25H7.5V6.875c0-.34518.27982-.625.625-.625s.625.27982.625.625v2.5c0 .34518-.27982.625-.625.625h-7.5C.279822 10 0 9.72018 0 9.375v-7.5c0-.34518.279822-.625.625-.625h2.5c.34518 0 .625.27982.625.625s-.27982.625-.625.625H1.25Zm3.56694 3.56694c-.24408.24408-.6398.24408-.88388 0-.24408-.24408-.24408-.6398 0-.88388l3.93797-3.93594H5.63508c-.34438 0-.62356-.279178-.62356-.62356C5.01152.279177 5.2907 0 5.63508 0h3.74136c.15958 0 .31917.0608788.44092.182636C9.93912.304394 10 .463977 10 .62356v3.74136c0 .34438-.27918.62356-.62356.62356s-.62356-.27918-.62356-.62356V2.12897L4.81694 6.06694Z" clip-rule="evenodd"></path></svg>