<svg class="ProductIcon " viewBox="0 0 40 40" fill="none" xmlns="http://www.w3.org/2000/svg"><path d="M20.0001 9.66675 27.57 18.3579c.8197.9412.8197 2.3428 0 3.2839l-7.5699 8.6912-7.5699-8.6912c-.8197-.9411-.8197-2.3427 0-3.2839l7.5699-8.69115Z" fill="url(#product-icon-financial-connections-SiteMenu-a)"></path><path d="m20 30.3331 4.1884 4.8089c.4748.5451 1.1623.858 1.8852.858H34.5c1.3807 0 2.5-1.1193 2.5-2.5v-27C37 5.11929 35.8807 4 34.5 4h-8.4264c-.7229 0-1.4104.31291-1.8852.85803L20 9.66688l7.5699 8.69112c.8197.9412.8197 2.3428 0 3.284L20 30.3331Z" fill="#00D924"></path><path d="M20 9.66688 12.4301 18.358c-.8197.9412-.8197 2.3428 0 3.284L20 30.3331l-4.1884 4.8089c-.4748.5451-1.1623.858-1.8852.858H5.5C4.11929 36 3 34.8807 3 33.5v-27C3 5.11929 4.11929 4 5.5 4h8.4264c.7229 0 1.4104.31291 1.8852.85803L20 9.66688Z" fill="url(#product-icon-financial-connections-SiteMenu-b)"></path><defs><linearGradient id="product-icon-financial-connections-SiteMenu-a" x1="4.00012" y1="19.4999" x2="41.0001" y2="19.4999" gradientUnits="userSpaceOnUse"><stop stop-color="#00D924"></stop><stop offset="1" stop-color="#00A600"></stop></linearGradient><linearGradient id="product-icon-financial-connections-SiteMenu-b" x1="27.5" y1="20" x2=".010181" y2="19.4718" gradientUnits="userSpaceOnUse"><stop stop-color="#11EFE3"></stop><stop offset="1" stop-color="#21CFE0"></stop></linearGradient></defs></svg>