<svg class="BasicIcon BasicIcon--platform SiteNavItem__basicIcon" viewBox="0 0 16 16" fill="currentColor" xmlns="http://www.w3.org/2000/svg"><path d="M7.98001 -1.71977e-05C7.89121 0.00483193 7.80513 0.0323761 7.73001 0.0799828L1.24001 4.02998C1.1663 4.07485 1.10546 4.13804 1.0634 4.21339C1.02134 4.28874 0.999506 4.37369 1.00001 4.45998C1.00001 4.62998 1.10001 4.78998 1.24001 4.87998L7.73001 8.82998C7.90001 8.92998 8.10001 8.92998 8.27001 8.82998L14.76 4.87998C14.8323 4.836 14.8922 4.77439 14.9342 4.70094C14.9762 4.62748 14.9988 4.54458 15 4.45998C15.0005 4.37369 14.9787 4.28874 14.9366 4.21339C14.8946 4.13804 14.8337 4.07485 14.76 4.02998L8.27001 0.0799828C8.18049 0.0233876 8.07582 -0.00452356 7.97001 -1.71977e-05H7.98001ZM2.48001 6.81998L1.24001 7.57998C1.16774 7.62397 1.10781 7.68557 1.06584 7.75903C1.02386 7.83248 1.00121 7.91539 1.00001 7.99998C1.00001 8.16998 1.10001 8.32998 1.24001 8.41998L7.73001 12.38C7.90001 12.48 8.10001 12.48 8.27001 12.38L14.76 8.41998C14.8323 8.376 14.8922 8.31439 14.9342 8.24094C14.9762 8.16748 14.9988 8.08458 15 7.99998C14.9988 7.91539 14.9762 7.83248 14.9342 7.75903C14.8922 7.68557 14.8323 7.62397 14.76 7.57998L13.51 6.81998L8.81001 9.67998C8.56512 9.8262 8.28523 9.90341 8.00001 9.90341C7.71479 9.90341 7.43489 9.8262 7.19001 9.67998L2.49001 6.81998H2.48001ZM2.48001 10.36L1.24001 11.12C1.1663 11.1649 1.10546 11.228 1.0634 11.3034C1.02134 11.3787 0.999506 11.4637 1.00001 11.55C1.00001 11.72 1.10001 11.88 1.24001 11.97L7.73001 15.92C7.90001 16.02 8.10001 16.02 8.27001 15.92L14.76 11.97C14.8323 11.926 14.8922 11.8644 14.9342 11.7909C14.9762 11.7175 14.9988 11.6346 15 11.55C15.0005 11.4637 14.9787 11.3787 14.9366 11.3034C14.8946 11.228 14.8337 11.1649 14.76 11.12L13.51 10.36L8.81001 13.23C8.56512 13.3762 8.28523 13.4534 8.00001 13.4534C7.71479 13.4534 7.43489 13.3762 7.19001 13.23L2.49001 10.36H2.48001Z" fill="currentColor"></path></svg>